HIERARCHY
ROOT hip
{
	OFFSET 0.000000 0.000000 0.000000 
	CHANNELS 6 Xposition Yposition Zposition Xrotation Zrotation Yrotation
	JOINT abdomen
	{
		OFFSET 0.000000 3.402643 0.000000 
		CHANNELS 3 Xrotation Zrotation Yrotation
		JOINT chest
		{
			OFFSET 0.000000 8.438565 -0.680529 
			CHANNELS 3 Xrotation Zrotation Yrotation
			JOINT neck
			{
				OFFSET 0.000000 10.207942 -0.272212 
				CHANNELS 3 Xrotation Zrotation Yrotation
				JOINT head
				{
					OFFSET 0.000000 3.130431 0.000000 
					CHANNELS 3 Xrotation Zrotation Yrotation
					End Site
					{
						OFFSET 0.000000 3.130435 0.000000 
					}
				}
			}
			JOINT lCollar
			{
				OFFSET 3.470700 6.669187 -0.816635 
				CHANNELS 3 Yrotation Zrotation Xrotation
				JOINT lShldr
				{
					OFFSET 3.198488 0.000000 0.000000 
					CHANNELS 3 Zrotation Yrotation Xrotation
					JOINT lForeArm
					{
						OFFSET 10.139888 0.000000 0.000000 
						CHANNELS 3 Yrotation Zrotation Xrotation
						JOINT lHand
						{
							OFFSET 8.370511 0.000000 0.000000 
							CHANNELS 3 Zrotation Yrotation Xrotation
							End Site
							{
								OFFSET 4.083176 0.000000 0.000000 
							}
						}
					}
				}
			}
			JOINT rCollar
			{
				OFFSET -3.470700 6.669187 -0.816635 
				CHANNELS 3 Yrotation Zrotation Xrotation
				JOINT rShldr
				{
					OFFSET -3.198488 0.000000 0.000000 
					CHANNELS 3 Zrotation Yrotation Xrotation
					JOINT rForeArm
					{
						OFFSET -10.139888 0.000000 0.000000 
						CHANNELS 3 Yrotation Zrotation Xrotation
						JOINT rHand
						{
							OFFSET -8.370511 0.000000 0.000000 
							CHANNELS 3 Zrotation Yrotation Xrotation
							End Site
							{
								OFFSET -4.083176 0.000000 0.000000 
							}
						}
					}
				}
			}
		}
	}
	JOINT lThigh
	{
		OFFSET 5.308129 -1.633274 1.361059 
		CHANNELS 3 Xrotation Zrotation Yrotation
		JOINT lShin
		{
			OFFSET -2.041588 -20.007561 0.000000 
			CHANNELS 3 Xrotation Zrotation Yrotation
			JOINT lFoot
			{
				OFFSET 0.000000 -19.190928 -1.224953 
				CHANNELS 3 Xrotation Yrotation Zrotation
				End Site
				{
					OFFSET 0.000000 -2.449906 4.627600 
				}
			}
		}
	}
	JOINT rThigh
	{
		OFFSET -5.308129 -1.633274 1.361059 
		CHANNELS 3 Xrotation Zrotation Yrotation
		JOINT rShin
		{
			OFFSET 2.041588 -20.007561 0.000000 
			CHANNELS 3 Xrotation Zrotation Yrotation
			JOINT rFoot
			{
				OFFSET 0.000000 -19.190928 -1.224953 
				CHANNELS 3 Xrotation Yrotation Zrotation
				End Site
				{
					OFFSET 0.000000 -2.449906 4.627600 
				}
			}
		}
	}
}
MOTION
Frames: 15
Frame Time: 0.033333
3.765807 38.217648 3.765807 0.000000 0.000000 0.000000 35.765072 3.975955 -16.843052 -10.399487 0.759406 7.470428 6.086711 -4.354001 -3.302279 10.524219 0.508720 -0.030344 -3.156059 -8.874641 25.000000 59.011646 -19.615669 -80.848061 -120.089340 -3.058143 0.148733 50.215931 -9.296501 -31.615395 -2.444088 2.681010 25.000000 74.882469 -11.952662 -37.359760 22.278370 2.048721 2.332253 45.329140 28.705795 81.229668 -44.720444 5.692153 3.353112 57.157364 0.669354 -4.404199 -12.068444 11.505342 -1.443656 -6.846282 -21.860249 -23.805243 65.255051 -1.254408 4.530457 -48.656593 -10.883153 14.292713 
4.371013 39.694557 4.371013 0.000000 0.000000 0.000000 36.237286 4.145990 -16.775478 -10.018709 0.710481 7.476285 7.568007 -4.362168 -3.453213 10.524219 0.508720 -0.030344 -3.247207 -8.978944 25.000000 58.717865 -20.140823 -79.617416 -121.101929 -3.047127 0.125200 50.051876 -9.083311 -31.870199 -2.435499 2.569813 25.000000 74.143074 -6.850070 -36.600559 21.621740 2.031133 2.340512 46.470890 29.575085 82.395325 -40.751945 4.805175 3.702933 52.675629 0.343929 -4.263619 -11.666303 11.751704 -0.716974 -2.911455 -21.178699 -24.591078 57.508190 -0.717905 4.392984 -44.348915 -10.968732 15.335175 
4.831853 40.760590 4.831853 0.000000 0.000000 0.000000 36.615345 4.443217 -16.651646 -9.637932 0.661644 7.481499 8.203125 -4.246720 -3.471769 10.524219 0.508720 -0.030344 -3.335375 -8.899242 24.208851 57.638702 -21.900002 -78.428894 -121.956650 -3.037744 0.100316 49.598728 -8.483725 -32.416557 -2.296031 2.632150 24.265131 72.719360 -0.200178 -35.097828 21.005133 2.009421 2.350261 48.297237 30.877731 84.266800 -37.869728 4.199222 4.039361 49.712063 0.158293 -4.172583 -11.693621 11.808322 -0.162404 0.652419 -20.505136 -25.294008 50.658073 -0.258940 4.168469 -40.607174 -11.031054 16.276943 
4.820737 41.288048 4.820737 0.000000 0.000000 0.000000 36.789913 5.140773 -16.379429 -9.179047 0.603160 7.484972 6.507935 -3.850836 -3.106049 10.524219 0.508720 -0.030344 -3.397376 -8.342957 21.042288 53.787582 -26.310757 -76.109894 -122.193314 -3.033728 0.091805 48.690285 -7.326796 -33.365128 -1.731685 3.112952 21.116936 70.478477 5.618746 -33.050510 20.736019 2.005482 2.348891 50.538979 32.349625 86.572731 -36.381851 3.993297 4.404533 48.756691 0.113744 -4.131144 -12.274609 11.616644 0.172090 2.575378 -20.073351 -25.692533 47.353207 -0.053598 4.056535 -39.000565 -11.081772 16.726242 
4.420973 41.332458 4.420987 0.000000 0.000000 0.000000 36.577415 6.049863 -16.036488 -8.827565 0.554598 7.488488 2.799695 -3.181834 -2.538354 10.524219 0.508720 -0.030344 -3.491099 -7.391938 16.231314 46.533699 -32.397560 -71.501740 -121.585548 -3.041845 0.106030 47.482494 -5.823627 -34.558125 -0.864453 3.888384 16.310579 67.954498 9.863002 -30.158857 20.856112 2.008004 2.352396 53.031284 33.814442 89.119576 -36.303558 4.217772 4.805454 49.897717 0.181851 -4.160561 -13.472281 11.209642 0.252998 0.104789 -21.225306 -23.898151 53.844563 -0.473793 4.279598 -40.216156 -11.420189 17.431404 
3.815782 40.854980 3.815782 0.000000 0.000000 0.000000 36.067642 7.091304 -15.659907 -8.554173 0.525386 7.494792 -2.415516 -2.300992 -2.001328 10.524219 0.508720 -0.030344 -3.603928 -6.185737 10.588296 37.574486 -37.978565 -64.815094 -120.895493 -3.049646 0.130349 46.497292 -4.639769 -35.499889 0.123686 4.772638 10.623761 65.684364 13.160393 -26.187275 21.343122 2.018946 2.344691 55.745560 35.229626 91.894562 -37.266426 4.783202 5.264904 52.685318 0.356899 -4.257744 -15.231526 10.586287 0.154374 -2.881444 -22.605429 -21.569883 61.445591 -0.990688 4.456155 -41.307758 -11.723152 18.674938 
3.138399 39.977715 3.138400 0.000000 0.000000 0.000000 35.355831 8.163321 -15.286883 -8.339375 0.496332 7.500312 -8.490831 -1.366345 -1.701690 10.524219 0.508720 -0.030344 -3.779189 -4.892787 4.831183 18.802860 -43.128128 -51.081825 -119.198631 -3.068808 0.177286 43.918018 -1.692472 -37.861168 1.027807 5.644495 4.797473 64.244102 16.083334 -21.106821 22.150148 2.046402 2.340602 58.636559 36.567162 94.852837 -39.077271 5.653055 5.725341 56.767780 0.629655 -4.398984 -17.443640 9.836039 -0.049020 -6.201714 -23.918350 -19.020023 69.541725 -1.557021 4.596203 -42.569210 -11.869461 20.035423 
2.372199 38.795078 2.372185 0.000000 0.000000 0.000000 34.512161 9.171895 -14.957452 -8.153875 0.467370 7.495612 -14.619160 -0.476990 -1.709979 10.524219 0.508720 -0.030344 -4.008029 -3.633924 -0.516905 -4.348371 -43.125195 -34.000156 -117.073608 -3.089434 0.225628 40.604263 1.763693 -40.891811 1.772815 6.405364 -0.658431 64.051994 19.103985 -15.111137 23.264702 2.070734 2.327511 61.656132 37.768124 97.937630 -41.483620 6.718728 6.169477 61.758186 0.962211 -4.484465 -19.906761 8.960654 -0.317794 -9.599535 -24.947098 -16.646923 77.522789 -2.118769 4.636490 -44.252228 -11.843613 21.173822 
1.572668 37.412567 1.572668 0.000000 0.000000 0.000000 33.622559 10.029298 -14.717451 -7.958607 0.438427 7.500566 -19.964031 0.223972 -1.982625 10.524219 0.508720 -0.030344 -4.275664 -2.539491 -4.942216 -25.269699 -37.551300 -19.768408 -114.602081 -3.116126 0.293657 36.824577 5.280387 -44.392399 2.270185 7.018452 -5.200471 65.337517 22.569048 -8.663480 24.649330 2.106846 2.313592 64.747742 38.820961 101.083061 -44.297768 7.936673 6.557208 67.301460 1.361041 -4.586962 -22.502258 8.015369 -0.573947 -12.812002 -25.466047 -14.853864 84.802963 -2.656238 4.619009 -46.617710 -11.835801 21.622652 
0.839765 35.796852 0.839765 0.000000 0.000000 0.000000 32.784512 10.618809 -14.561594 -7.734025 0.418996 7.497940 -23.685389 0.654759 -2.356474 10.524219 0.508720 -0.030344 -4.555015 -1.750805 -7.928024 -40.664238 -29.414356 -11.383699 -111.841019 -3.139985 0.365855 32.834557 8.519079 -48.172512 2.492633 7.447676 -8.281035 68.066132 26.831303 -2.244831 26.274946 2.150863 2.301683 67.841423 39.701874 104.225540 -47.307716 9.197011 6.838753 72.971649 1.769992 -4.653270 -25.075500 7.062347 -0.786139 -15.507280 -25.359032 -14.078258 90.731720 -3.066358 4.559459 -49.950031 -11.997238 20.889156 
0.345612 34.047894 0.345612 0.000000 0.000000 0.000000 32.249504 10.842951 -14.533044 -7.538754 0.390126 7.502520 -24.879053 0.800076 -2.548748 10.524219 0.508720 -0.030344 -4.690178 -1.454968 -8.894114 -51.086826 -22.360937 -7.658294 -108.829300 -3.158552 0.446353 28.966774 11.177927 -51.932426 2.519779 7.620661 -9.285051 72.060959 32.448479 3.672425 28.110912 2.199332 2.284010 70.857979 40.419693 107.303139 -50.320450 10.419642 7.055521 78.429176 2.159757 -4.660884 -27.441677 6.110036 -0.944812 -17.312799 -24.126045 -15.521513 94.448761 -3.329866 4.480010 -55.908417 -12.524927 17.498055 
-0.043046 32.432171 -0.043046 0.000000 0.000000 0.000000 31.906040 10.876152 -14.549220 -7.392296 0.370877 7.499060 -24.693697 0.823409 -2.625265 10.524219 0.508720 -0.030344 -4.781648 -1.385855 -9.278831 -58.432281 -17.183725 -5.586378 -105.633278 -3.173455 0.537414 25.665796 13.107332 -55.290424 2.489779 7.641269 -9.677852 76.864822 37.976032 9.490420 30.128023 2.247627 2.262692 73.694366 40.963383 110.181145 -53.098789 11.521346 7.164447 83.301361 2.519910 -4.668473 -29.480251 5.277588 -1.013270 -18.475103 -21.890799 -19.023628 96.175682 -3.466351 4.431041 -64.464638 -12.456534 11.661489 
-0.276241 31.082977 -0.276241 0.000000 0.000000 0.000000 31.162485 10.732209 -14.648550 -7.099376 0.332441 7.501611 -22.939577 0.770303 -2.666511 10.524219 0.508720 -0.030344 -4.912984 -1.472428 -9.208710 -62.050713 -14.970989 -4.337622 -103.091454 -3.185436 0.598973 23.802929 13.985664 -57.343796 2.346092 7.565323 -9.597692 82.102203 42.913284 15.169225 32.287304 2.309019 2.232945 76.289886 41.359627 112.822990 -55.446175 12.410958 7.229652 87.211540 2.793123 -4.622823 -31.007584 4.567179 -1.024573 -19.471910 -19.509790 -22.958208 96.986641 -3.495763 4.411764 -72.859451 -10.968689 5.822066 
-0.376182 30.144684 -0.376182 0.000000 0.000000 0.000000 30.330650 10.355662 -14.844202 -6.796690 0.294077 7.503822 -18.965822 0.662337 -2.576478 10.524219 0.508720 -0.030344 -5.009656 -1.765168 -8.897019 -63.027798 -15.362144 -3.653817 -101.173973 -3.194591 0.655411 22.950155 14.289513 -58.425014 2.171276 7.325183 -8.954332 85.553810 46.515190 18.315649 33.629467 2.341252 2.223662 77.656387 41.529533 114.219666 -57.121605 13.004975 7.309792 89.766174 2.977828 -4.594661 -31.860176 4.069106 -0.937071 -20.613911 -17.828840 -25.863346 97.971275 -3.573629 4.407300 -78.271416 -9.019804 1.906199 
-0.276241 29.861416 -0.276241 0.000000 0.000000 0.000000 29.450516 9.798666 -15.085403 -6.494006 0.246331 7.503252 -14.078398 0.416909 -2.437263 10.524219 0.508720 -0.030344 -5.029721 -2.275982 -7.688732 -63.274551 -17.300838 -1.588494 -97.307190 -3.195457 0.761411 22.299355 14.294486 -59.709221 1.972938 6.947206 -7.968021 88.388794 49.884544 20.413389 35.071415 2.375490 2.202337 78.567635 41.624527 115.145737 -58.002998 13.162350 7.354248 90.341560 3.016645 -4.589437 -31.572618 3.934590 -0.837258 -21.364719 -17.689669 -26.226566 98.938530 -3.632332 4.364372 -75.436401 -8.548992 1.798268 
